# xmcd
#
# Track frame offsets: 
#        150
#        13700
#        25510
#        35640
#        48305
#        62262
#        74302
#        84527
#        98037
#        107925
#        119210
#        130375
#        143195
#        156087
#        167365
#        178932
#        189365
#        204892
#
# Disc length: 2916 seconds
#
# Revision: 4
# Processed by: cddbd v1.5.2PL0 Copyright (c) Steve Scherf et al.
# Submitted via: ExactAudioCopy v0.99pb5
#
DISCID=f20b6212
DTITLE=The Troggs - Love Is All Around
DYEAR=1900
DGENRE=Beat
TTITLE0=Love Is All Around
TTITLE1=Wild Thing
TTITLE2=Give It to Me
TTITLE3=Hi Hi Haze
TTITLE4=Night of the Long Grass
TTITLE5=Seventeen
TTITLE6=The Kitty Cat Song
TTITLE7=Little Girl
TTITLE8=I Just Sing
TTITLE9=Jingle Jangle
TTITLE10=When I'm with You
TTITLE11=Let Me Tell You Babe
TTITLE12=You Can Cry If You Want Me
TTITLE13=Ride Your Pony
TTITLE14=Lost Girl
TTITLE15=Hip Hip Hooray
TTITLE16=I Can Only Give You Everything
TTITLE17=Louie Louie
EXTD=
EXTT0=
EXTT1=
EXTT2=
EXTT3=
EXTT4=
EXTT5=
EXTT6=
EXTT7=
EXTT8=
EXTT9=
EXTT10=
EXTT11=
EXTT12=
EXTT13=
EXTT14=
EXTT15=
EXTT16=
EXTT17=
PLAYORDER=
